<svg width="32" height="32" viewBox="0 0 32 32" fill="none" xmlns="http://www.w3.org/2000/svg">
<path d="M26.6415 22.1901C28.1756 21.3397 29.4247 20.2828 30.2248 19.0753C30.062 20.945 28.6184 22.7166 26.1761 24.0704C23.5961 25.5006 19.9993 26.4001 16.0003 26.4001C12.0726 26.4001 8.53266 25.5325 5.96297 24.1463C3.43843 22.7845 1.94071 20.9791 1.776 19.0757C2.57618 20.283 3.82509 21.3398 5.35901 22.1901C8.10664 23.7131 11.8699 24.6401 16.0003 24.6401C20.1307 24.6401 23.8939 23.7131 26.6415 22.1901ZM16.0003 5.60012C19.9993 5.60012 23.5961 6.49963 26.1761 7.92979C28.7726 9.36909 30.2403 11.2806 30.2403 13.2801C30.2403 15.2796 28.7726 17.1911 26.1761 18.6304C23.5961 20.0606 19.9993 20.9601 16.0003 20.9601C12.0012 20.9601 8.40446 20.0606 5.82444 18.6304C3.22796 17.1911 1.76027 15.2796 1.76027 13.2801C1.76027 11.2806 3.22796 9.36909 5.82444 7.92979C8.40446 6.49963 12.0012 5.60012 16.0003 5.60012Z" fill="url(#paint0_linear_1280_31398)" stroke="url(#paint1_linear_1280_31398)" stroke-width="0.96"/>
<path fill-rule="evenodd" clip-rule="evenodd" d="M1.28251 16.114H1.2793V18.7239V18.7239C1.2793 19.795 1.66004 20.8555 2.39977 21.845C3.13951 22.8346 4.22375 23.7337 5.59061 24.491C6.95746 25.2484 8.58015 25.8491 10.366 26.259C12.1519 26.6689 14.066 26.8798 15.999 26.8798C17.9321 26.8798 19.8461 26.6689 21.632 26.259C23.4179 25.8491 25.0406 25.2484 26.4075 24.491C27.7743 23.7337 28.8586 22.8346 29.5983 21.845C30.338 20.8555 30.7188 19.795 30.7188 18.7239V18.7239V16.114H30.7162C30.5595 20.5432 24.0305 24.1069 15.9994 24.1069C7.96819 24.1069 1.43925 20.5432 1.28251 16.114Z" fill="#DAF727"/>
<g clip-path="url(#clip0_1280_31398)">
<g opacity="0.8" filter="url(#filter0_f_1280_31398)">
<path d="M14.9751 17.3209L15.3637 18.1327C15.4066 18.2223 15.5207 18.2804 15.6184 18.2623L16.3264 18.1311C16.3733 18.1224 16.4101 18.0969 16.4287 18.0603C16.4474 18.0237 16.4462 17.979 16.4256 17.9359L16.037 17.1241L16.391 17.0585L16.7796 17.8703C16.8225 17.9599 16.9366 18.018 17.0343 17.9998L17.7422 17.8686C17.7892 17.8599 17.826 17.8345 17.8446 17.7979C17.8632 17.7613 17.8621 17.7165 17.8415 17.6735L17.4529 16.8617L17.5124 16.8507C18.9226 16.5893 19.6096 15.7316 19.0541 14.5711C18.5871 13.5956 17.619 13.1946 16.748 13.2733L16.7206 13.2161C17.3321 12.9317 17.6093 12.3628 17.2312 11.5731C16.755 10.5781 15.6517 10.1251 14.4093 10.3553L14.3442 10.3674L13.9556 9.55563C13.935 9.51257 13.8965 9.47473 13.8488 9.45043C13.801 9.42613 13.7478 9.41737 13.7009 9.42607L12.9929 9.55728C12.946 9.56598 12.9092 9.59143 12.8905 9.62803C12.8719 9.66463 12.873 9.70938 12.8937 9.75244L13.2823 10.5642L12.8766 10.6394L12.488 9.82762C12.4674 9.78456 12.429 9.74672 12.3812 9.72243C12.3334 9.69813 12.2802 9.68937 12.2333 9.69807L11.577 9.8197C11.5301 9.8284 11.4933 9.85385 11.4747 9.89045C11.456 9.92705 11.4572 9.9718 11.4778 10.0149L11.8664 10.8266L10.4553 11.0959C10.4084 11.1046 10.3715 11.1301 10.3529 11.1667C10.3343 11.2033 10.3354 11.248 10.356 11.2911L10.6635 11.9334C10.7061 12.0224 10.8191 12.0813 10.9168 12.0632L11.4497 11.9609C11.5903 11.9358 11.7492 11.9626 11.8917 12.0355C12.0342 12.1085 12.1487 12.2216 12.2103 12.3502L13.9217 15.9253C13.9835 16.0545 13.9869 16.1888 13.931 16.2985C13.8752 16.4083 13.7647 16.4847 13.6239 16.5108L13.0977 16.6161C13.0508 16.6248 13.014 16.6502 12.9954 16.6868C12.9767 16.7234 12.9779 16.7682 12.9985 16.8112L13.3094 17.4607C13.3523 17.5503 13.4664 17.6083 13.5641 17.5902L14.9751 17.3209ZM13.3389 11.6051L14.5558 11.3796C15.1972 11.2607 15.7287 11.5143 15.9817 12.0429C16.2525 12.6086 15.9981 13.0029 15.0763 13.1737L14.1701 13.3417L13.3389 11.6051V11.6051ZM14.5982 14.2359L15.9008 13.9945C16.7058 13.8453 17.3243 14.1408 17.6178 14.7538C17.914 15.3727 17.6254 15.7776 16.5408 15.9787L15.5228 16.1673L14.5985 14.2366L14.5982 14.2359Z" fill="#5235E8" fill-opacity="0.64"/>
</g>
<path d="M13.8624 15.5841C13.7949 15.5968 13.7419 15.6335 13.7151 15.6862C13.6882 15.739 13.6899 15.8037 13.7196 15.8659L14.0305 16.5153C14.0925 16.6448 14.2573 16.7286 14.3984 16.7024L14.3988 16.7023L15.731 16.4481L16.0849 17.1873C16.1468 17.3168 16.3116 17.4006 16.4528 17.3745L17.1607 17.2433C17.2285 17.2307 17.2817 17.1939 17.3086 17.1411C17.3355 17.0882 17.3339 17.0236 17.3041 16.9614L16.95 16.2217L17.1467 16.1853L17.5007 16.9249C17.5627 17.0544 17.7275 17.1382 17.8686 17.112L18.5766 16.9808C18.6444 16.9683 18.6976 16.9315 18.7245 16.8786C18.7514 16.8258 18.7497 16.7611 18.72 16.6989L18.3659 15.9593C19.0742 15.8247 19.6089 15.54 19.8962 15.1355C20.1874 14.7255 20.2204 14.198 19.9325 13.5965C19.6908 13.0917 19.3164 12.7301 18.8844 12.506C18.5242 12.3191 18.1289 12.2303 17.745 12.2301C17.9753 12.0872 18.1451 11.8956 18.2295 11.6586C18.3339 11.3654 18.3058 11.0081 18.1097 10.5985C17.8622 10.0815 17.4485 9.7002 16.9314 9.48009C16.4201 9.26248 15.8176 9.20644 15.1881 9.32074L14.834 8.58109C14.8043 8.51889 14.7488 8.46423 14.6798 8.42914C14.6108 8.39404 14.5339 8.38138 14.4661 8.39395L13.7582 8.52516C13.6904 8.53773 13.6372 8.57449 13.6103 8.62735C13.5834 8.68022 13.585 8.74486 13.6148 8.80706L13.9689 9.54668L13.7205 9.59271L13.3665 8.85308C13.3367 8.79089 13.2812 8.73623 13.2122 8.70113C13.1432 8.66604 13.0664 8.65338 12.9986 8.66595L12.3423 8.78758C12.2745 8.80015 12.2213 8.83691 12.1944 8.88977C12.1675 8.94264 12.1691 9.00728 12.1989 9.06948L12.5532 9.8095L11.2206 10.0638L11.2551 10.136L11.2201 10.0639L11.2203 10.0639C11.1526 10.0765 11.0995 10.1132 11.0727 10.166C11.0458 10.2189 11.0474 10.2835 11.0772 10.3457L11.3846 10.988C11.4459 11.1159 11.609 11.2018 11.7511 11.1754L11.7517 11.1753L12.2841 11.0731M13.8624 15.5841C13.8626 15.584 13.8628 15.584 13.863 15.584L13.8976 15.6561L13.8619 15.5842L13.8624 15.5841ZM13.8624 15.5841L14.388 15.4789L14.3891 15.4787C14.5091 15.4564 14.6032 15.3914 14.6508 15.2979C14.6984 15.2043 14.6955 15.09 14.6428 14.9799L12.9314 11.4048C12.879 11.2953 12.7814 11.1989 12.6601 11.1368C12.5389 11.0747 12.4037 11.0518 12.2841 11.0731M12.2841 11.0731L12.2846 11.073L12.2495 11.0009L12.2836 11.0732C12.2837 11.0732 12.2839 11.0731 12.2841 11.0731ZM14.2519 10.7027L15.3902 10.4918C15.6969 10.4349 15.9674 10.4689 16.1864 10.5715C16.4043 10.6735 16.5841 10.8495 16.7029 11.0975C16.8299 11.363 16.8301 11.578 16.701 11.7476C16.5692 11.921 16.2948 12.0576 15.8416 12.1416L15.0141 12.295L14.2519 10.7027ZM15.5112 13.3336L16.7352 13.1067C17.1251 13.0344 17.4586 13.0719 17.7246 13.1921C17.9888 13.3114 18.2001 13.5184 18.3389 13.8085C18.4786 14.1002 18.4764 14.3298 18.3235 14.5122C18.1665 14.6996 17.8427 14.8471 17.3061 14.9465L16.3667 15.1206L15.5112 13.3336Z" fill="white" stroke="#8D79F1" stroke-width="0.16"/>
</g>
<defs>
<filter id="filter0_f_1280_31398" x="9.69984" y="8.78285" width="10.1872" height="10.1228" filterUnits="userSpaceOnUse" color-interpolation-filters="sRGB">
<feFlood flood-opacity="0" result="BackgroundImageFix"/>
<feBlend mode="normal" in="SourceGraphic" in2="BackgroundImageFix" result="shape"/>
<feGaussianBlur stdDeviation="0.32" result="effect1_foregroundBlur_1280_31398"/>
</filter>
<linearGradient id="paint0_linear_1280_31398" x1="31.1485" y1="6.18092" x2="1.16483" y2="17.1254" gradientUnits="userSpaceOnUse">
<stop stop-color="#5235E8"/>
<stop offset="1" stop-color="#816CEF"/>
</linearGradient>
<linearGradient id="paint1_linear_1280_31398" x1="7.86413" y1="5.12012" x2="26.221" y2="18.7069" gradientUnits="userSpaceOnUse">
<stop stop-color="#917FF1"/>
<stop offset="1" stop-color="#725AEC"/>
</linearGradient>
<clipPath id="clip0_1280_31398">
<rect width="11.52" height="11.52" fill="white" transform="matrix(0.983255 -0.182236 0.431771 0.901983 7.83984 8.63989)"/>
</clipPath>
</defs>
</svg>
