<svg version="1.2" xmlns="http://www.w3.org/2000/svg" viewBox="0 0 96 35" width="96" height="35">
	<title>64a70944f1df46e33841411b_void logo-svg(1)-svg</title>
	<style>
		.s0 { fill: #8345e7 } 
		.s1 { fill: #000000 } 
	</style>
	<path id="Layer" class="s0" d="m13.1 31.2c-7.2 0-13.1-5.9-13.1-13.1 0-7.2 5.9-13.1 13.1-13.1 7.2 0 13.1 5.9 13.1 13.1 0 7.2-5.9 13.1-13.1 13.1z"/>
	<path id="Layer" class="s1" d="m19.9 31.2c-7.2 0-13.1-5.9-13.1-13.1 0-7.2 5.9-13.1 13.1-13.1 7.2 0 13.1 5.9 13.1 13.1 0 7.2-5.9 13.1-13.1 13.1z"/>
	<path id="Text layer 2" fill-rule="evenodd" class="s1" d="m37.1 26.7l-0.5-18.1q0-0.3 0.1-0.5 0.1-0.1 0.3-0.3 0.2-0.1 0.7-0.1 0.4 0 1 0 0.6 0 1 0 0.4 0 0.6 0.1 0.3 0.1 0.4 0.2 0.2 0.1 0.2 0.3l3.3 10h0.1l3.2-10q0.1-0.2 0.2-0.3 0.1-0.1 0.4-0.2 0.2-0.1 0.6-0.1 0.4 0 0.9 0 0.7 0 1.1 0 0.5 0 0.7 0.1 0.2 0.2 0.3 0.3 0.1 0.2 0.1 0.5l-0.5 18.1q-0.1 0.2-0.1 0.4 0 0.2-0.2 0.2-0.2 0.1-0.5 0.1-0.3 0.1-0.8 0.1-0.4 0-0.8-0.1-0.2 0-0.4-0.1-0.1 0-0.2-0.2-0.1-0.2-0.1-0.4l0.1-12.7h-0.1l-2.7 9.4q-0.1 0.2-0.2 0.4 0 0.1-0.2 0.2-0.1 0.1-0.4 0.1-0.2 0-0.6 0-0.4 0-0.6 0-0.2 0-0.3-0.1-0.1-0.1-0.2-0.2-0.1-0.2-0.1-0.4l-2.7-9.4h-0.1c0 0.1 0 13 0 13.1q-0.1 0.2-0.3 0.2-0.1 0.1-0.4 0.1-0.3 0.1-0.8 0.1-0.5 0-0.8-0.1-0.3 0-0.5-0.1-0.1 0-0.2-0.2 0-0.2 0-0.4zm17.4-2v-0.6q0-0.7 0.3-1.2 0.3-0.5 0.7-0.9 0.5-0.3 1.1-0.6 0.6-0.3 1.1-0.5 0.8-0.2 1.6-0.4 0.8-0.2 1.6-0.3l-0.1-3.9q0-0.6-0.3-0.9-0.3-0.3-0.9-0.3-0.4 0-0.6 0-0.2 0.1-0.4 0.2-0.2 0.1-0.3 0.4-0.1 0.2-0.1 0.6l-0.1 2.7q0 0.2-0.1 0.3 0 0.2-0.2 0.2-0.2 0.1-0.6 0.1-0.3 0.1-0.9 0.1-0.5 0-0.8-0.1-0.4 0-0.5-0.1-0.2 0-0.3-0.2 0-0.1 0-0.3l-0.1-2.5q-0.1-0.6 0.2-1.1 0.2-0.5 0.6-0.9 0.4-0.3 0.9-0.6 0.6-0.2 1.1-0.4 0.6-0.1 1.2-0.2 0.5-0.1 1-0.1 1 0 1.9 0.3 0.9 0.2 1.6 0.6 0.7 0.5 1.1 1.1 0.4 0.6 0.3 1.4l-0.3 10.2q0 0.2-0.1 0.4 0 0.1-0.2 0.1-0.2 0.1-0.5 0.1-0.3 0.1-0.8 0.1-0.4 0-0.7-0.1-0.3 0-0.4-0.1-0.2 0-0.2-0.1-0.1-0.2-0.1-0.4v-0.4q-0.3 0.2-0.7 0.4-0.3 0.3-0.8 0.4-0.4 0.2-0.9 0.3-0.4 0.1-1 0.1-0.8 0-1.4-0.2-0.6-0.2-1-0.6-0.5-0.4-0.7-1-0.2-0.5-0.2-1.1zm3.2-0.8v0.4q0 0.4 0.1 0.6 0.1 0.3 0.3 0.5 0.2 0.1 0.4 0.2 0.3 0.1 0.5 0.1 0.7 0 1.2-0.3 0.5-0.2 0.9-0.5l-0.1-3q-0.7 0.1-1.1 0.3-0.5 0.1-0.9 0.3-0.6 0.2-0.9 0.5-0.4 0.4-0.4 0.9zm10.5 2.9l-0.3-10.2c-0.2 0-1 0-1.1 0q-0.2-0.1-0.3-0.2 0-0.1-0.1-0.4 0-0.2 0-0.6 0-0.3 0-0.5 0.1-0.2 0.1-0.3 0.1-0.1 0.3-0.2 0.2 0 0.5 0h0.6l-0.1-3.3q0-0.2 0-0.4 0.1-0.2 0.3-0.3 0.2-0.1 0.6-0.1 0.4 0 1 0 0.6 0 1 0 0.4 0 0.6 0.1 0.2 0.1 0.2 0.3 0.1 0.2 0.1 0.4l-0.1 3.3c0.2 0 1 0 1.1 0q0.2 0.1 0.2 0.2 0.1 0.1 0.1 0.3 0.1 0.2 0.1 0.5 0 0.4-0.1 0.6 0 0.3-0.1 0.4 0 0.1-0.2 0.2-0.2 0-0.5 0h-0.6l-0.3 10.2q0 0.2 0 0.4-0.1 0.1-0.3 0.1-0.1 0.1-0.4 0.1-0.3 0.1-0.8 0.1-0.5 0-0.8-0.1-0.3 0-0.5-0.1-0.1 0-0.2-0.1 0-0.2 0-0.4zm7.4 0l-0.2-10.2c-0.2 0-1 0-1.1 0q-0.2-0.1-0.3-0.2-0.1-0.1-0.1-0.4 0-0.2 0-0.6 0-0.3 0-0.5 0-0.2 0.1-0.3 0.1-0.1 0.3-0.2 0.1 0 0.4 0h0.6c0-0.1 0-3.6 0-3.7q0.1-0.2 0.3-0.3 0.2-0.1 0.5-0.1 0.4 0 1.1 0 0.6 0 1 0 0.4 0 0.6 0.1 0.2 0.1 0.2 0.3 0.1 0.2 0.1 0.4l-0.1 3.3c0.2 0 1 0 1.1 0q0.1 0.1 0.2 0.2 0.1 0.1 0.1 0.3 0 0.2 0 0.5 0 0.4 0 0.6 0 0.3-0.1 0.4-0.1 0.1-0.2 0.2-0.2 0-0.5 0h-0.7l-0.2 10.2q0 0.2-0.1 0.4 0 0.1-0.2 0.1-0.1 0.1-0.4 0.1-0.3 0.1-0.8 0.1-0.5 0-0.8-0.1-0.3 0-0.5-0.1-0.1 0-0.2-0.1-0.1-0.2-0.1-0.4zm8.6 0l-3-12.6q-0.1-0.2 0-0.4 0-0.1 0.2-0.2 0.2-0.1 0.6-0.2 0.5 0 1.1 0 0.6 0 1 0 0.3 0.1 0.5 0.2 0.2 0.1 0.3 0.2 0 0.2 0.1 0.4l1.5 10.5h0.3l1.3-10.5q0-0.2 0-0.4 0.1-0.1 0.3-0.2 0.2-0.1 0.6-0.2 0.3 0 1 0 0.6 0 1 0 0.4 0.1 0.6 0.2 0.2 0.1 0.3 0.2 0 0.2 0 0.4l-2.7 11.9-0.2 0.7-1 4.7q-0.1 0.3-0.2 0.4-0.1 0.2-0.2 0.3-0.2 0.1-0.5 0.1-0.2 0.1-0.7 0.1-0.8 0-1-0.2-0.3-0.2-0.2-0.7l0.8-4h-0.5q-0.3 0-0.5-0.1-0.3 0-0.4-0.1-0.2 0-0.2-0.2-0.1-0.1-0.2-0.3z"/>
</svg>