<svg width="256" height="256" viewBox="0 0 256 256" fill="none" xmlns="http://www.w3.org/2000/svg">
<path d="M213.132 177.521C225.405 170.717 235.397 162.262 241.799 152.602C240.496 167.56 228.947 181.733 209.409 192.564C188.769 204.005 159.994 211.201 128.002 211.201C96.5812 211.201 68.2613 204.26 47.7038 193.171C27.5074 182.276 15.5257 167.833 14.208 152.605C20.6095 162.264 30.6007 170.718 42.8721 177.521C64.8531 189.705 94.9588 197.121 128.002 197.121C161.046 197.121 191.151 189.705 213.132 177.521ZM128.002 44.8009C159.994 44.8009 188.769 51.997 209.409 63.4383C230.181 74.9527 241.922 90.2448 241.922 106.241C241.922 122.237 230.181 137.529 209.409 149.044C188.769 160.485 159.994 167.681 128.002 167.681C96.0099 167.681 67.2357 160.485 46.5955 149.044C25.8237 137.529 14.0822 122.237 14.0822 106.241C14.0822 90.2448 25.8237 74.9527 46.5955 63.4383C67.2357 51.997 96.0099 44.8009 128.002 44.8009Z" fill="url(#paint0_linear_1280_31413)" stroke="url(#paint1_linear_1280_31413)" stroke-width="7.68"/>
<path fill-rule="evenodd" clip-rule="evenodd" d="M10.2574 128.912H10.2344V149.79V149.791C10.2346 158.359 13.2805 166.844 19.1982 174.759C25.116 182.676 33.79 189.868 44.7248 195.927C55.6597 201.986 68.6412 206.792 82.9282 210.071C97.2153 213.35 112.528 215.038 127.992 215.038C143.456 215.038 158.769 213.35 173.056 210.071C187.343 206.792 200.325 201.986 211.26 195.927C222.194 189.869 230.868 182.676 236.786 174.759C242.704 166.844 245.75 158.359 245.75 149.791V149.79V128.912H245.727C244.474 164.346 192.242 192.856 127.992 192.856C63.7423 192.856 11.5104 164.346 10.2574 128.912Z" fill="#DAF727"/>
<g clip-path="url(#clip0_1280_31413)">
<g opacity="0.8" filter="url(#filter0_f_1280_31413)">
<path d="M119.801 138.567L122.91 145.062C123.253 145.779 124.166 146.243 124.947 146.098L130.611 145.048C130.986 144.979 131.281 144.775 131.43 144.482C131.579 144.19 131.57 143.832 131.405 143.487L128.296 136.993L131.128 136.468L134.237 142.962C134.58 143.679 135.493 144.144 136.274 143.999L141.938 142.949C142.313 142.879 142.608 142.676 142.757 142.383C142.906 142.09 142.897 141.732 142.732 141.388L139.623 134.894L140.099 134.805C151.381 132.714 156.877 125.853 152.432 116.569C148.697 108.765 140.952 105.557 133.984 106.186L133.765 105.729C138.657 103.454 140.874 98.9022 137.85 92.5845C134.04 84.6251 125.214 81.0005 115.274 82.8427L114.753 82.9393L111.645 76.445C111.48 76.1005 111.172 75.7978 110.79 75.6034C110.408 75.4091 109.982 75.339 109.607 75.4086L103.943 76.4582C103.568 76.5278 103.273 76.7314 103.124 77.0242C102.975 77.317 102.984 77.675 103.149 78.0195L106.258 84.5138L103.013 85.1153L99.904 78.621C99.7391 78.2765 99.4318 77.9738 99.0497 77.7794C98.6676 77.585 98.2419 77.5149 97.8664 77.5845L92.6163 78.5576C92.2408 78.6272 91.9461 78.8308 91.7972 79.1236C91.6483 79.4164 91.6573 79.7744 91.8222 80.1189L94.9309 86.6132L83.6425 88.7676C83.267 88.8372 82.9723 89.0407 82.8234 89.3335C82.6745 89.6263 82.6835 89.9844 82.8484 90.3288L85.308 95.4671C85.6487 96.1789 86.5527 96.6505 87.3343 96.5056L91.5979 95.6872C92.7228 95.4861 93.9939 95.7008 95.1338 96.2843C96.2737 96.8678 97.1899 97.7728 97.6824 98.8017L111.373 127.403C111.868 128.436 111.895 129.51 111.448 130.388C111.001 131.267 110.118 131.878 108.991 132.086L104.782 132.929C104.406 132.998 104.112 133.202 103.963 133.495C103.814 133.787 103.823 134.145 103.988 134.49L106.475 139.685C106.818 140.402 107.731 140.867 108.512 140.722L119.801 138.567ZM106.711 92.8409L116.447 91.0365C121.578 90.0855 125.829 92.1143 127.854 96.3434C130.02 100.869 127.984 104.023 120.611 105.39L113.361 106.733L106.711 92.8409V92.8409ZM116.786 113.888L127.207 111.956C133.646 110.763 138.594 113.126 140.942 118.031C143.312 122.982 141.003 126.221 132.326 127.829L124.182 129.339L116.788 113.893L116.786 113.888Z" fill="#5235E8" fill-opacity="0.64"/>
</g>
<path d="M94.0091 89.4032L94.0132 89.4024L98.2724 88.5848C99.2297 88.4148 100.311 88.5978 101.281 89.0942C102.252 89.5912 103.032 90.3621 103.452 91.2386L117.143 119.839C117.564 120.72 117.587 121.635 117.206 122.383C116.826 123.131 116.073 123.652 115.113 123.829L115.113 123.829L115.104 123.831L110.899 124.673C110.359 124.774 109.935 125.068 109.721 125.489C109.506 125.912 109.519 126.429 109.757 126.927L112.244 132.122C112.74 133.158 114.058 133.829 115.187 133.619L115.191 133.619L125.848 131.585L128.679 137.499C129.175 138.534 130.493 139.205 131.622 138.996L137.286 137.946C137.828 137.845 138.254 137.551 138.469 137.128C138.684 136.706 138.671 136.188 138.433 135.691L135.6 129.774L137.173 129.482L140.006 135.399C140.502 136.435 141.82 137.106 142.949 136.896L148.613 135.847C149.155 135.746 149.581 135.452 149.796 135.029C150.011 134.606 149.998 134.089 149.76 133.591L146.927 127.674C152.594 126.598 156.871 124.32 159.17 121.084C161.499 117.804 161.763 113.584 159.46 108.772C157.527 104.733 154.531 101.841 151.075 100.048C148.193 98.5529 145.032 97.8423 141.96 97.8407C143.803 96.6978 145.161 95.1647 145.836 93.2688C146.672 90.9232 146.446 88.065 144.878 84.7882C142.898 80.6521 139.588 77.6016 135.451 75.8407C131.361 74.0998 126.541 73.6515 121.505 74.5659L118.672 68.6487C118.434 68.1511 117.99 67.7138 117.438 67.4331C116.886 67.1523 116.271 67.0511 115.729 67.1516L110.065 68.2013C109.523 68.3018 109.098 68.5959 108.882 69.0188C108.667 69.4417 108.68 69.9589 108.918 70.4565L111.751 76.3735L109.764 76.7417L106.932 70.8247C106.694 70.3271 106.25 69.8898 105.698 69.6091C105.146 69.3283 104.531 69.2271 103.989 69.3276L98.7384 70.3006C98.196 70.4012 97.7704 70.6952 97.5553 71.1182C97.3402 71.5411 97.3531 72.0582 97.5913 72.5558L100.425 78.476L89.7646 80.5106C89.764 80.5107 89.7633 80.5108 89.7627 80.511C89.2212 80.6118 88.7964 80.9057 88.5815 81.3281C88.3664 81.7511 88.3793 82.2682 88.6175 82.7658L91.0772 87.904C91.5669 88.9271 92.8718 89.614 94.0091 89.4032ZM114.015 85.6218L123.121 83.934C125.575 83.4792 127.739 83.7508 129.491 84.5717C131.234 85.3882 132.673 86.7962 133.623 88.7804C134.64 90.9041 134.641 92.6236 133.608 93.9812C132.554 95.368 130.359 96.4608 126.733 97.1329L120.113 98.3598L114.015 85.6218ZM124.09 106.668L133.881 104.854C137.001 104.276 139.669 104.575 141.797 105.536C143.91 106.491 145.6 108.147 146.711 110.468C147.828 112.801 147.811 114.638 146.588 116.098C145.332 117.596 142.742 118.777 138.448 119.572L130.934 120.965L124.09 106.668Z" fill="white" stroke="#8D79F1" stroke-width="1.28"/>
</g>
<defs>
<filter id="filter0_f_1280_31413" x="77.5978" y="70.2623" width="81.4949" height="80.9822" filterUnits="userSpaceOnUse" color-interpolation-filters="sRGB">
<feFlood flood-opacity="0" result="BackgroundImageFix"/>
<feBlend mode="normal" in="SourceGraphic" in2="BackgroundImageFix" result="shape"/>
<feGaussianBlur stdDeviation="2.56" result="effect1_foregroundBlur_1280_31413"/>
</filter>
<linearGradient id="paint0_linear_1280_31413" x1="249.188" y1="49.4473" x2="9.31864" y2="137.004" gradientUnits="userSpaceOnUse">
<stop stop-color="#5235E8"/>
<stop offset="1" stop-color="#816CEF"/>
</linearGradient>
<linearGradient id="paint1_linear_1280_31413" x1="62.913" y1="40.9609" x2="209.768" y2="149.655" gradientUnits="userSpaceOnUse">
<stop stop-color="#917FF1"/>
<stop offset="1" stop-color="#725AEC"/>
</linearGradient>
<clipPath id="clip0_1280_31413">
<rect width="92.16" height="92.16" fill="white" transform="matrix(0.983255 -0.182236 0.431771 0.901983 62.7188 69.1191)"/>
</clipPath>
</defs>
</svg>
